<?xml version="1.0" encoding="utf-8"?>
<!-- Svg Vector Icons : http://www.onlinewebfonts.com/icon -->
<!DOCTYPE svg PUBLIC "-//W3C//DTD SVG 1.1//EN" "http://www.w3.org/Graphics/SVG/1.1/DTD/svg11.dtd">
<svg version="1.1" xmlns="http://www.w3.org/2000/svg" xmlns:xlink="http://www.w3.org/1999/xlink" x="0px" y="0px" viewBox="0 0 1000 1000" enable-background="new 0 0 1000 1000" xml:space="preserve">
<metadata> Svg Vector Icons : http://www.onlinewebfonts.com/icon </metadata>
<g><path d="M797,587.5l-273.8-274c-6.4-6.3-14.8-9.5-23.1-9.5c-8.4,0-16.7,3.2-23.1,9.5L203,587.5c-12.7,12.7-12.7,33.4,0,46.2c12.7,12.7,33.5,12.7,46.2,0L500,382.9l250.8,250.8c12.7,12.7,33.4,12.7,46.2,0C809.7,620.9,809.7,600.2,797,587.5L797,587.5z M500,10C229.4,10,10,229.4,10,500s219.4,490,490,490c270.6,0,490-219.4,490-490S770.6,10,500,10L500,10z M500,924.6C265.4,924.6,75.4,734.6,75.4,500C75.4,265.4,265.5,75.4,500,75.4S924.6,265.4,924.6,500C924.6,734.6,734.6,924.6,500,924.6L500,924.6z"/></g>
</svg>